<?xml version="1.0" encoding="iso-8859-1"?>
<!-- Generator: Adobe Illustrator 19.0.0, SVG Export Plug-In . SVG Version: 6.00 Build 0)  -->
<svg version="1.1" id="Capa_1" xmlns="http://www.w3.org/2000/svg" xmlns:xlink="http://www.w3.org/1999/xlink" x="0px" y="0px"
	 viewBox="0 0 512 512" style="enable-background:new 0 0 512 512;" xml:space="preserve">
<polygon style="fill:#00E890;" points="406.917,379.435 105.083,379.435 65.583,432.102 65.583,511.768 446.417,511.768 
	446.417,432.102 "/>
<polygon style="fill:#00C47A;" points="406.917,379.435 257.901,379.435 257.901,511.768 446.417,511.768 446.417,432.102 "/>
<polygon style="fill:#FF7700;" points="344.049,379.607 343.905,451.94 171.238,451.596 171.382,379.262 141.382,379.203 
	141.118,511.536 373.785,512 374.049,379.667 "/>
<polygon style="fill:#FF4F19;" points="344.049,379.607 343.905,451.94 257.583,451.766 257.583,511.766 373.785,512 
	374.049,379.667 "/>
<path style="fill:#FFD699;" d="M400,181.333h-26.667v-60c0-2.209-1.791-4-4-4H142.667c-2.209,0-4,1.791-4,4v60H112V256h26.667v79
	H208v43.667c0,26.51,21.49,48,48,48l0,0c26.51,0,48-21.49,48-48V335h69.333v-79H400V181.333z"/>
<path style="fill:#FFC266;" d="M373.333,181.333v-60c0-2.209-1.791-4-4-4H256v309.333l0,0c26.51,0,48-21.49,48-48V335h69.333v-79
	H400v-74.667L373.333,181.333L373.333,181.333z"/>
<path style="fill:#FFFFFF;" d="M255.999,292.333c-22.316,0-42.983-12.996-52.652-33.108l-1.295-2.691l27.035-13.006l1.297,2.696
	c4.705,9.788,14.759,16.11,25.615,16.11c10.856,0,20.91-6.322,25.614-16.106l1.295-2.695l27.039,12.998l-1.296,2.696
	C298.982,279.338,278.315,292.333,255.999,292.333z"/>
<g>
	<rect x="197.33" y="176.93" style="fill:#333333;" width="30" height="30"/>
	<rect x="284.67" y="176.93" style="fill:#333333;" width="30" height="30"/>
</g>
<path style="fill:#FFEFD6;" d="M282.909,243.532l-1.295,2.695c-4.704,9.784-14.758,16.106-25.614,16.106v30
	c22.315,0,42.982-12.996,52.652-33.108l1.296-2.696L282.909,243.532z"/>
<rect x="123.67" y="128" style="fill:#816244;" width="32" height="64"/>
<rect x="356.33" y="128" style="fill:#56412D;" width="32" height="64"/>
<path style="fill:#FF7700;" d="M388.333,136.667H123.666V117c0-64.514,52.486-117,117-117h30.667c64.514,0,117,52.486,117,117
	V136.667z"/>
<path style="fill:#FF4F19;" d="M271.333,0H256v136.667h132.333V117C388.333,52.486,335.847,0,271.333,0z"/>
<rect x="123.67" y="106.67" style="fill:#FF9900;" width="297" height="30"/>
<g>
</g>
<g>
</g>
<g>
</g>
<g>
</g>
<g>
</g>
<g>
</g>
<g>
</g>
<g>
</g>
<g>
</g>
<g>
</g>
<g>
</g>
<g>
</g>
<g>
</g>
<g>
</g>
<g>
</g>
</svg>
